<svg xmlns="http://www.w3.org/2000/svg" >
  <!-- Phosphor Icons Regular 2.1.1, MIT License: https://phosphoricons.com/ -->
  <!-- Cowboy Boot by Game Icons via Iconify, CC BY 3.0: https://game-icons.net/ -->
  <symbol id="boot" viewBox="0 0 512 512" fill="currentColor"><path d="M186.04 28.48a130 130 0 0 0-5.07.054c-49.926 1.53-75.597 31.9-74.4 57.398c.89 18.922 2.416 37.83 4.444 56.733c19.092-4.165 37.502-6.347 55.134-6.797c11.13-.284 21.945.136 32.434 1.166c-2.545-36.064-5.777-72.215-8.744-108.45c-1.275-.045-2.55-.094-3.797-.105zm21.972 1.466c3.003 36.432 6.283 72.948 8.824 109.553c37.808 6.546 70.754 21.334 97.615 40.987a3378 3378 0 0 0 17.077-73.777c-9.38 2.87-18.88 7.747-24.04 16.015l-13.88 22.23l-2.707-26.065c-3.884-37.403-15.315-58.383-31.798-71.15c-13.105-10.15-30.336-15.402-51.09-17.794zm-33.04 123.758a248 248 0 0 0-3.66.004c-18.41.157-37.85 2.365-58.22 6.947c7.097 57.442 18.488 114.89 30.615 172.664c20.94 1.16 38.01 2.942 54.818 7.325c6.488-61.598 5.21-123.43 1.288-185.515a241 241 0 0 0-24.842-1.426zm43.08 4.182c3.85 62.53 4.95 125.308-2.007 188.322c13.285 4.984 27.21 11.94 43.518 21.807l2.67 1.617l1.097 2.922c12.882 34.34 25.885 69.15 31.828 104.648c68.924-1.1 149.596 3.353 197.332-3.967c-40-52.644-101.235-64.218-147.013-70.672c-9.992-.196-18.673.505-31.99 1.596c6.397-6.884 10.99-11.14 16.503-13.43l-54.908-63.407l1.387-4.717c11.695-39.76 22.927-81.474 33.292-123.058c-24.73-19.558-55.586-34.706-91.71-41.662zM69.51 279.98l-8.883 26.654q-.678.26-1.336.56l-25.136-12.568l12.57 25.137q-.3.658-.562 1.336l-26.652 8.88l26.652 8.886q.262.677.56 1.334l-12.568 25.137L59.29 352.77q.66.299 1.337.56l8.883 26.65l8.885-26.65q.675-.261 1.334-.56l25.135 12.567L92.3 340.2c.074-.166.138-.338.21-.506c17.088 5.487 30.27 8.56 48.287 11.533c.157-9.57 2.457-14.43 2.775-17.867c-15.31-1.792-29.058-6.342-44.04-10.197l-6.675-2.065q-.26-.676-.558-1.335l12.565-25.137l-25.136 12.568q-.66-.3-1.335-.56zm0 38.638c6.356 0 11.363 5.007 11.363 11.363c0 6.358-5.007 11.365-11.363 11.365c-6.357 0-11.364-5.007-11.364-11.364c0-6.355 5.007-11.362 11.364-11.362zm71.39 32.57c-11.994 19.473-18.548 50.984-24.37 71.516c34.156 6.413 72.87 2.2 100.835 11.896c19.624 6.545 38.616 17.945 57.326 31.65c-6.132-27.707-16.43-55.875-27.102-84.362c-41.578-24.765-63.012-28.43-106.688-30.7zm-22.96 89.72c5.37 14.482 15.01 27.736 29.4 41.347c10.983 1.942 24.74 1.31 37.1.396c2.596-11.198 7.043-22.792 14.148-33.626c-27.144-4.143-53.522-5.665-80.65-8.117z"/></symbol>
  <symbol id="hat" viewBox="0 0 256 256" fill="currentColor"><path d="M216,120a8,8,0,0,0-6.78,3.76A179.9,179.9,0,0,1,195.41,143L178.32,53.07a16,16,0,0,0-25.72-9.55l-.13.1L128,64,103.53,43.62l-.13-.1a16,16,0,0,0-25.72,9.53L60.59,143a179.27,179.27,0,0,1-13.81-19.25A8,8,0,0,0,40,120a40,40,0,0,0,0,80H216a40,40,0,0,0,0-80ZM93.41,56,117.88,76.4l.12.1a15.92,15.92,0,0,0,20,0l.12-.1L162.59,56l13.68,72H79.73ZM40,184a24,24,0,0,1-4.14-47.64C51.28,159.83,67.73,174.65,82.4,184Zm88,0c-.33,0-25.49-.4-53.86-26.6L76.68,144H179.31l2.54,13.35a113.28,113.28,0,0,1-27.35,19C139.1,183.77,128.06,184,128,184Zm88,0H173.6c14.67-9.35,31.12-24.17,46.54-47.64A24,24,0,0,1,216,184Z"/></symbol>
  <symbol id="guitar" viewBox="0 0 256 256" fill="currentColor"><path d="M249.66,46.34l-40-40a8,8,0,0,0-11.31,11.32L200.69,20,140.52,80.16C117.73,68.3,92.21,69.29,76.75,84.74a42.27,42.27,0,0,0-9.39,14.37A8.24,8.24,0,0,1,59.81,104c-14.59.49-27.26,5.72-36.65,15.11C11.08,131.22,6,148.6,8.74,168.07,11.4,186.7,21.07,205.15,36,220s33.34,24.56,52,27.22A71.13,71.13,0,0,0,98.1,248c15.32,0,28.83-5.23,38.76-15.16,9.39-9.39,14.62-22.06,15.11-36.65a8.24,8.24,0,0,1,4.92-7.55,42.12,42.12,0,0,0,14.37-9.39c15.45-15.46,16.44-41,4.58-63.77L236,55.31l2.34,2.34a8,8,0,1,0,11.32-11.31ZM160,167.93a26.12,26.12,0,0,1-8.95,5.83,24.24,24.24,0,0,0-15,21.89c-.36,10.46-4,19.41-10.43,25.88-8.44,8.43-21,11.95-35.36,9.89C75,229.25,59.73,221.19,47.27,208.73S26.75,181,24.58,165.81c-2-14.37,1.46-26.92,9.89-35.36C40.94,124,49.89,120.37,60.35,120h0a24.22,24.22,0,0,0,21.89-15,26.12,26.12,0,0,1,5.83-9c5.49-5.49,13-8.13,21.38-8.13a49.38,49.38,0,0,1,19.13,4.19L108.5,112.19a32,32,0,1,0,35.31,35.31l20.08-20.08C170.41,142.71,169.47,158.41,160,167.93Zm-10.4-61.48a72.9,72.9,0,0,1,5.93,6.75l-15.42,15.42a32.22,32.22,0,0,0-12.68-12.68l15.42-15.43A73,73,0,0,1,149.55,106.45ZM112,128a16,16,0,0,1,16,16h0a16,16,0,1,1-16-16Zm48.85-32.85a86.94,86.94,0,0,0-6.68-6L176,67.31,188.69,80l-21.83,21.82A86.94,86.94,0,0,0,160.86,95.14ZM200,68.68,187.32,56,212,31.31,224.69,44ZM93.66,194.33a8,8,0,0,1-11.31,11.32l-32-32a8,8,0,0,1,11.32-11.31Z"/></symbol>
  <symbol id="ticket" viewBox="0 0 256 256" fill="currentColor"><path d="M232,104a8,8,0,0,0,8-8V64a16,16,0,0,0-16-16H32A16,16,0,0,0,16,64V96a8,8,0,0,0,8,8,24,24,0,0,1,0,48,8,8,0,0,0-8,8v32a16,16,0,0,0,16,16H224a16,16,0,0,0,16-16V160a8,8,0,0,0-8-8,24,24,0,0,1,0-48ZM32,167.2a40,40,0,0,0,0-78.4V64H88V192H32Zm192,0V192H104V64H224V88.8a40,40,0,0,0,0,78.4Z"/></symbol>
  <symbol id="calendar" viewBox="0 0 256 256" fill="currentColor"><path d="M208,32H184V24a8,8,0,0,0-16,0v8H88V24a8,8,0,0,0-16,0v8H48A16,16,0,0,0,32,48V208a16,16,0,0,0,16,16H208a16,16,0,0,0,16-16V48A16,16,0,0,0,208,32ZM72,48v8a8,8,0,0,0,16,0V48h80v8a8,8,0,0,0,16,0V48h24V80H48V48ZM208,208H48V96H208V208Zm-96-88v64a8,8,0,0,1-16,0V132.94l-4.42,2.22a8,8,0,0,1-7.16-14.32l16-8A8,8,0,0,1,112,120Zm59.16,30.45L152,176h16a8,8,0,0,1,0,16H136a8,8,0,0,1-6.4-12.8l28.78-38.37A8,8,0,1,0,145.07,132a8,8,0,1,1-13.85-8A24,24,0,0,1,176,136,23.76,23.76,0,0,1,171.16,150.45Z"/></symbol>
  <symbol id="pin" viewBox="0 0 256 256" fill="currentColor"><path d="M128,64a40,40,0,1,0,40,40A40,40,0,0,0,128,64Zm0,64a24,24,0,1,1,24-24A24,24,0,0,1,128,128Zm0-112a88.1,88.1,0,0,0-88,88c0,31.4,14.51,64.68,42,96.25a254.19,254.19,0,0,0,41.45,38.3,8,8,0,0,0,9.18,0A254.19,254.19,0,0,0,174,200.25c27.45-31.57,42-64.85,42-96.25A88.1,88.1,0,0,0,128,16Zm0,206c-16.53-13-72-60.75-72-118a72,72,0,0,1,144,0C200,161.23,144.53,209,128,222Z"/></symbol>
  <symbol id="camera" viewBox="0 0 256 256" fill="currentColor"><path d="M208,56H180.28L166.65,35.56A8,8,0,0,0,160,32H96a8,8,0,0,0-6.65,3.56L75.71,56H48A24,24,0,0,0,24,80V192a24,24,0,0,0,24,24H208a24,24,0,0,0,24-24V80A24,24,0,0,0,208,56Zm8,136a8,8,0,0,1-8,8H48a8,8,0,0,1-8-8V80a8,8,0,0,1,8-8H80a8,8,0,0,0,6.66-3.56L100.28,48h55.43l13.63,20.44A8,8,0,0,0,176,72h32a8,8,0,0,1,8,8ZM128,88a44,44,0,1,0,44,44A44.05,44.05,0,0,0,128,88Zm0,72a28,28,0,1,1,28-28A28,28,0,0,1,128,160Z"/></symbol>
  <symbol id="badge" viewBox="0 0 256 256" fill="currentColor"><path d="M225.86,102.82c-3.77-3.94-7.67-8-9.14-11.57-1.36-3.27-1.44-8.69-1.52-13.94-.15-9.76-.31-20.82-8-28.51s-18.75-7.85-28.51-8c-5.25-.08-10.67-.16-13.94-1.52-3.56-1.47-7.63-5.37-11.57-9.14C146.28,23.51,138.44,16,128,16s-18.27,7.51-25.18,14.14c-3.94,3.77-8,7.67-11.57,9.14C88,40.64,82.56,40.72,77.31,40.8c-9.76.15-20.82.31-28.51,8S41,67.55,40.8,77.31c-.08,5.25-.16,10.67-1.52,13.94-1.47,3.56-5.37,7.63-9.14,11.57C23.51,109.72,16,117.56,16,128s7.51,18.27,14.14,25.18c3.77,3.94,7.67,8,9.14,11.57,1.36,3.27,1.44,8.69,1.52,13.94.15,9.76.31,20.82,8,28.51s18.75,7.85,28.51,8c5.25.08,10.67.16,13.94,1.52,3.56,1.47,7.63,5.37,11.57,9.14C109.72,232.49,117.56,240,128,240s18.27-7.51,25.18-14.14c3.94-3.77,8-7.67,11.57-9.14,3.27-1.36,8.69-1.44,13.94-1.52,9.76-.15,20.82-.31,28.51-8s7.85-18.75,8-28.51c.08-5.25.16-10.67,1.52-13.94,1.47-3.56,5.37-7.63,9.14-11.57C232.49,146.28,240,138.44,240,128S232.49,109.73,225.86,102.82Zm-11.55,39.29c-4.79,5-9.75,10.17-12.38,16.52-2.52,6.1-2.63,13.07-2.73,19.82-.1,7-.21,14.33-3.32,17.43s-10.39,3.22-17.43,3.32c-6.75.1-13.72.21-19.82,2.73-6.35,2.63-11.52,7.59-16.52,12.38S132,224,128,224s-9.15-4.92-14.11-9.69-10.17-9.75-16.52-12.38c-6.1-2.52-13.07-2.63-19.82-2.73-7-.1-14.33-.21-17.43-3.32s-3.22-10.39-3.32-17.43c-.1-6.75-.21-13.72-2.73-19.82-2.63-6.35-7.59-11.52-12.38-16.52S32,132,32,128s4.92-9.15,9.69-14.11,9.75-10.17,12.38-16.52c2.52-6.1,2.63-13.07,2.73-19.82.1-7,.21-14.33,3.32-17.43S70.51,56.9,77.55,56.8c6.75-.1,13.72-.21,19.82-2.73,6.35-2.63,11.52-7.59,16.52-12.38S124,32,128,32s9.15,4.92,14.11,9.69,10.17,9.75,16.52,12.38c6.1,2.52,13.07,2.63,19.82,2.73,7,.1,14.33.21,17.43,3.32s3.22,10.39,3.32,17.43c.1,6.75.21,13.72,2.73,19.82,2.63,6.35,7.59,11.52,12.38,16.52S224,124,224,128,219.08,137.15,214.31,142.11ZM173.66,98.34a8,8,0,0,1,0,11.32l-56,56a8,8,0,0,1-11.32,0l-24-24a8,8,0,0,1,11.32-11.32L112,148.69l50.34-50.35A8,8,0,0,1,173.66,98.34Z"/></symbol>
  <symbol id="gift" viewBox="0 0 256 256" fill="currentColor"><path d="M216,72H180.92c.39-.33.79-.65,1.17-1A29.53,29.53,0,0,0,192,49.57,32.62,32.62,0,0,0,158.44,16,29.53,29.53,0,0,0,137,25.91a54.94,54.94,0,0,0-9,14.48,54.94,54.94,0,0,0-9-14.48A29.53,29.53,0,0,0,97.56,16,32.62,32.62,0,0,0,64,49.57,29.53,29.53,0,0,0,73.91,71c.38.33.78.65,1.17,1H40A16,16,0,0,0,24,88v32a16,16,0,0,0,16,16v64a16,16,0,0,0,16,16H200a16,16,0,0,0,16-16V136a16,16,0,0,0,16-16V88A16,16,0,0,0,216,72ZM149,36.51a13.69,13.69,0,0,1,10-4.5h.49A16.62,16.62,0,0,1,176,49.08a13.69,13.69,0,0,1-4.5,10c-9.49,8.4-25.24,11.36-35,12.4C137.7,60.89,141,45.5,149,36.51Zm-64.09.36A16.63,16.63,0,0,1,96.59,32h.49a13.69,13.69,0,0,1,10,4.5c8.39,9.48,11.35,25.2,12.39,34.92-9.72-1-25.44-4-34.92-12.39a13.69,13.69,0,0,1-4.5-10A16.6,16.6,0,0,1,84.87,36.87ZM40,88h80v32H40Zm16,48h64v64H56Zm144,64H136V136h64Zm16-80H136V88h80v32Z"/></symbol>
  <symbol id="flame" viewBox="0 0 256 256" fill="currentColor"><path d="M173.79,51.48a221.25,221.25,0,0,0-41.67-34.34,8,8,0,0,0-8.24,0A221.25,221.25,0,0,0,82.21,51.48C54.59,80.48,40,112.47,40,144a88,88,0,0,0,176,0C216,112.47,201.41,80.48,173.79,51.48ZM96,184c0-27.67,22.53-47.28,32-54.3,9.48,7,32,26.63,32,54.3a32,32,0,0,1-64,0Zm77.27,15.93A47.8,47.8,0,0,0,176,184c0-44-42.09-69.79-43.88-70.86a8,8,0,0,0-8.24,0C122.09,114.21,80,140,80,184a47.8,47.8,0,0,0,2.73,15.93A71.88,71.88,0,0,1,56,144c0-34.41,20.4-63.15,37.52-81.19A216.21,216.21,0,0,1,128,33.54a215.77,215.77,0,0,1,34.48,29.27C193.49,95.5,200,125,200,144A71.88,71.88,0,0,1,173.27,199.93Z"/></symbol>
  <symbol id="music" viewBox="0 0 256 256" fill="currentColor"><path d="M212.92,17.69a8,8,0,0,0-6.86-1.45l-128,32A8,8,0,0,0,72,56V166.08A36,36,0,1,0,88,196V110.25l112-28v51.83A36,36,0,1,0,216,164V24A8,8,0,0,0,212.92,17.69ZM52,216a20,20,0,1,1,20-20A20,20,0,0,1,52,216ZM88,93.75V62.25l112-28v31.5ZM180,184a20,20,0,1,1,20-20A20,20,0,0,1,180,184Z"/></symbol>
  <symbol id="heart" viewBox="0 0 256 256" fill="currentColor"><path d="M178,40c-20.65,0-38.73,8.88-50,23.89C116.73,48.88,98.65,40,78,40a62.07,62.07,0,0,0-62,62c0,70,103.79,126.66,108.21,129a8,8,0,0,0,7.58,0C136.21,228.66,240,172,240,102A62.07,62.07,0,0,0,178,40ZM128,214.8C109.74,204.16,32,155.69,32,102A46.06,46.06,0,0,1,78,56c19.45,0,35.78,10.36,42.6,27a8,8,0,0,0,14.8,0c6.82-16.67,23.15-27,42.6-27a46.06,46.06,0,0,1,46,46C224,155.61,146.24,204.15,128,214.8Z"/></symbol>
  <symbol id="star" viewBox="0 0 256 256" fill="currentColor"><path d="M239.18,97.26A16.38,16.38,0,0,0,224.92,86l-59-4.76L143.14,26.15a16.36,16.36,0,0,0-30.27,0L90.11,81.23,31.08,86a16.46,16.46,0,0,0-9.37,28.86l45,38.83L53,211.75a16.38,16.38,0,0,0,24.5,17.82L128,198.49l50.53,31.08A16.4,16.4,0,0,0,203,211.75l-13.76-58.07,45-38.83A16.43,16.43,0,0,0,239.18,97.26Zm-15.34,5.47-48.7,42a8,8,0,0,0-2.56,7.91l14.88,62.8a.37.37,0,0,1-.17.48c-.18.14-.23.11-.38,0l-54.72-33.65a8,8,0,0,0-8.38,0L69.09,215.94c-.15.09-.19.12-.38,0a.37.37,0,0,1-.17-.48l14.88-62.8a8,8,0,0,0-2.56-7.91l-48.7-42c-.12-.1-.23-.19-.13-.5s.18-.27.33-.29l63.92-5.16A8,8,0,0,0,103,91.86l24.62-59.61c.08-.17.11-.25.35-.25s.27.08.35.25L153,91.86a8,8,0,0,0,6.75,4.92l63.92,5.16c.15,0,.24,0,.33.29S224,102.63,223.84,102.73Z"/></symbol>
  <symbol id="lock" viewBox="0 0 256 256" fill="currentColor"><path d="M208,80H176V56a48,48,0,0,0-96,0V80H48A16,16,0,0,0,32,96V208a16,16,0,0,0,16,16H208a16,16,0,0,0,16-16V96A16,16,0,0,0,208,80ZM96,56a32,32,0,0,1,64,0V80H96ZM208,208H48V96H208V208Zm-68-56a12,12,0,1,1-12-12A12,12,0,0,1,140,152Z"/></symbol>
  <symbol id="people" viewBox="0 0 256 256" fill="currentColor"><path d="M244.8,150.4a8,8,0,0,1-11.2-1.6A51.6,51.6,0,0,0,192,128a8,8,0,0,1-7.37-4.89,8,8,0,0,1,0-6.22A8,8,0,0,1,192,112a24,24,0,1,0-23.24-30,8,8,0,1,1-15.5-4A40,40,0,1,1,219,117.51a67.94,67.94,0,0,1,27.43,21.68A8,8,0,0,1,244.8,150.4ZM190.92,212a8,8,0,1,1-13.84,8,57,57,0,0,0-98.16,0,8,8,0,1,1-13.84-8,72.06,72.06,0,0,1,33.74-29.92,48,48,0,1,1,58.36,0A72.06,72.06,0,0,1,190.92,212ZM128,176a32,32,0,1,0-32-32A32,32,0,0,0,128,176ZM72,120a8,8,0,0,0-8-8A24,24,0,1,1,87.24,82a8,8,0,1,0,15.5-4A40,40,0,1,0,37,117.51,67.94,67.94,0,0,0,9.6,139.19a8,8,0,1,0,12.8,9.61A51.6,51.6,0,0,1,64,128,8,8,0,0,0,72,120Z"/></symbol>
  <symbol id="user" viewBox="0 0 256 256" fill="currentColor"><path d="M230.92,212c-15.23-26.33-38.7-45.21-66.09-54.16a72,72,0,1,0-73.66,0C63.78,166.78,40.31,185.66,25.08,212a8,8,0,1,0,13.85,8c18.84-32.56,52.14-52,89.07-52s70.23,19.44,89.07,52a8,8,0,1,0,13.85-8ZM72,96a56,56,0,1,1,56,56A56.06,56.06,0,0,1,72,96Z"/></symbol>
  <symbol id="home" viewBox="0 0 256 256" fill="currentColor"><path d="M219.31,108.68l-80-80a16,16,0,0,0-22.62,0l-80,80A15.87,15.87,0,0,0,32,120v96a8,8,0,0,0,8,8h64a8,8,0,0,0,8-8V160h32v56a8,8,0,0,0,8,8h64a8,8,0,0,0,8-8V120A15.87,15.87,0,0,0,219.31,108.68ZM208,208H160V152a8,8,0,0,0-8-8H104a8,8,0,0,0-8,8v56H48V120l80-80,80,80Z"/></symbol>
  <symbol id="chat" viewBox="0 0 256 256" fill="currentColor"><path d="M168,112a8,8,0,0,1-8,8H96a8,8,0,0,1,0-16h64A8,8,0,0,1,168,112Zm-8,24H96a8,8,0,0,0,0,16h64a8,8,0,0,0,0-16Zm72-8A104,104,0,0,1,79.12,219.82L45.07,231.17a16,16,0,0,1-20.24-20.24l11.35-34.05A104,104,0,1,1,232,128Zm-16,0A88,88,0,1,0,51.81,172.06a8,8,0,0,1,.66,6.54L40,216,77.4,203.53a7.85,7.85,0,0,1,2.53-.42,8,8,0,0,1,4,1.08A88,88,0,0,0,216,128Z"/></symbol>
  <symbol id="shield" viewBox="0 0 256 256" fill="currentColor"><path d="M208,40H48A16,16,0,0,0,32,56v56c0,52.72,25.52,84.67,46.93,102.19,23.06,18.86,46,25.26,47,25.53a8,8,0,0,0,4.2,0c1-.27,23.91-6.67,47-25.53C198.48,196.67,224,164.72,224,112V56A16,16,0,0,0,208,40Zm0,72c0,37.07-13.66,67.16-40.6,89.42A129.3,129.3,0,0,1,128,223.62a128.25,128.25,0,0,1-38.92-21.81C61.82,179.51,48,149.3,48,112l0-56,160,0ZM82.34,141.66a8,8,0,0,1,11.32-11.32L112,148.69l50.34-50.35a8,8,0,0,1,11.32,11.32l-56,56a8,8,0,0,1-11.32,0Z"/></symbol>
  <symbol id="eye" viewBox="0 0 256 256" fill="currentColor"><path d="M247.31,124.76c-.35-.79-8.82-19.58-27.65-38.41C194.57,61.26,162.88,48,128,48S61.43,61.26,36.34,86.35C17.51,105.18,9,124,8.69,124.76a8,8,0,0,0,0,6.5c.35.79,8.82,19.57,27.65,38.4C61.43,194.74,93.12,208,128,208s66.57-13.26,91.66-38.34c18.83-18.83,27.3-37.61,27.65-38.4A8,8,0,0,0,247.31,124.76ZM128,192c-30.78,0-57.67-11.19-79.93-33.25A133.47,133.47,0,0,1,25,128,133.33,133.33,0,0,1,48.07,97.25C70.33,75.19,97.22,64,128,64s57.67,11.19,79.93,33.25A133.46,133.46,0,0,1,231.05,128C223.84,141.46,192.43,192,128,192Zm0-112a48,48,0,1,0,48,48A48.05,48.05,0,0,0,128,80Zm0,80a32,32,0,1,1,32-32A32,32,0,0,1,128,160Z"/></symbol>
  <symbol id="trash" viewBox="0 0 256 256" fill="currentColor"><path d="M216,48H176V40a24,24,0,0,0-24-24H104A24,24,0,0,0,80,40v8H40a8,8,0,0,0,0,16h8V208a16,16,0,0,0,16,16H192a16,16,0,0,0,16-16V64h8a8,8,0,0,0,0-16ZM96,40a8,8,0,0,1,8-8h48a8,8,0,0,1,8,8v8H96Zm96,168H64V64H192ZM112,104v64a8,8,0,0,1-16,0V104a8,8,0,0,1,16,0Zm48,0v64a8,8,0,0,1-16,0V104a8,8,0,0,1,16,0Z"/></symbol>
  <symbol id="cactus" viewBox="0 0 256 256" fill="currentColor"><path d="M216,208H168V184h4a68.07,68.07,0,0,0,68-68,28,28,0,0,0-56,0,12,12,0,0,1-12,12h-4V56a40,40,0,0,0-80,0V88H84A12,12,0,0,1,72,76a28,28,0,0,0-56,0,68.07,68.07,0,0,0,68,68h4v64H40a8,8,0,0,0,0,16H216a8,8,0,0,0,0-16ZM96,128H84A52.06,52.06,0,0,1,32,76a12,12,0,0,1,24,0,28,28,0,0,0,28,28H96a8,8,0,0,0,8-8V56a24,24,0,0,1,48,0v80a8,8,0,0,0,8,8h12a28,28,0,0,0,28-28,12,12,0,0,1,24,0,52.06,52.06,0,0,1-52,52H160a8,8,0,0,0-8,8v32H104V136A8,8,0,0,0,96,128Z"/></symbol>
  <symbol id="moon" viewBox="0 0 256 256" fill="currentColor"><path d="M240,96a8,8,0,0,1-8,8H216v16a8,8,0,0,1-16,0V104H184a8,8,0,0,1,0-16h16V72a8,8,0,0,1,16,0V88h16A8,8,0,0,1,240,96ZM144,56h8v8a8,8,0,0,0,16,0V56h8a8,8,0,0,0,0-16h-8V32a8,8,0,0,0-16,0v8h-8a8,8,0,0,0,0,16Zm72.77,97a8,8,0,0,1,1.43,8A96,96,0,1,1,95.07,37.8a8,8,0,0,1,10.6,9.06A88.07,88.07,0,0,0,209.14,150.33,8,8,0,0,1,216.77,153Zm-19.39,14.88c-1.79.09-3.59.14-5.38.14A104.11,104.11,0,0,1,88,64c0-1.79,0-3.59.14-5.38A80,80,0,1,0,197.38,167.86Z"/></symbol>
  <symbol id="tent" viewBox="0 0 256 256" fill="currentColor"><path d="M255.31,188.75l-64-144A8,8,0,0,0,184,40H72a8,8,0,0,0-7.27,4.69.21.21,0,0,0,0,.06l0,.12,0,0L.69,188.75A8,8,0,0,0,8,200H248a8,8,0,0,0,7.31-11.25ZM64,184H20.31L64,85.7Zm16,0V85.7L123.69,184Zm61.2,0L84.31,56H178.8l56.89,128Z"/></symbol>
  <symbol id="trophy" viewBox="0 0 256 256" fill="currentColor"><path d="M232,64H208V48a8,8,0,0,0-8-8H56a8,8,0,0,0-8,8V64H24A16,16,0,0,0,8,80V96a40,40,0,0,0,40,40h3.65A80.13,80.13,0,0,0,120,191.61V216H96a8,8,0,0,0,0,16h64a8,8,0,0,0,0-16H136V191.58c31.94-3.23,58.44-25.64,68.08-55.58H208a40,40,0,0,0,40-40V80A16,16,0,0,0,232,64ZM48,120A24,24,0,0,1,24,96V80H48v32q0,4,.39,8Zm144-8.9c0,35.52-29,64.64-64,64.9a64,64,0,0,1-64-64V56H192ZM232,96a24,24,0,0,1-24,24h-.5a81.81,81.81,0,0,0,.5-8.9V80h24Z"/></symbol>
  <symbol id="butterfly" viewBox="0 0 256 256" fill="currentColor"><path d="M232.7,50.48C229,45.7,221.84,40,209,40c-16.85,0-38.46,11.28-57.81,30.16A140.07,140.07,0,0,0,136,87.53V56a8,8,0,0,0-16,0V87.53a140.07,140.07,0,0,0-15.15-17.37C85.49,51.28,63.88,40,47,40,34.16,40,27,45.7,23.3,50.48c-6.82,8.77-12.18,24.08-.21,71.2,6.05,23.83,19.51,33,30.63,36.42A44,44,0,0,0,128,205.27a44,44,0,0,0,74.28-47.17c11.12-3.4,24.57-12.59,30.63-36.42C239.63,95.24,244.85,66.1,232.7,50.48ZM92,208A28.12,28.12,0,0,1,88.86,152a8,8,0,1,0-1.76-15.9A43.64,43.64,0,0,0,66.36,144c-8.43.09-22-3.57-27.76-26.26C35.72,106.39,27,71.86,35.94,60.3,37.37,58.46,40.09,56,47,56c27.27,0,73,44.88,73,71.67V180A28,28,0,0,1,92,208ZM217.4,117.74c-5.77,22.69-19.33,26.34-27.77,26.26a43.6,43.6,0,0,0-20.74-7.95,8,8,0,1,0-1.76,15.9A28.11,28.11,0,1,1,136,180V127.67C136,100.88,181.69,56,209,56c6.95,0,9.66,2.46,11.1,4.3C229.05,71.86,220.28,106.39,217.4,117.74Z"/></symbol>
  <symbol id="crown" viewBox="0 0 256 256" fill="currentColor"><path d="M248,80a28,28,0,1,0-51.12,15.77l-26.79,33L146,73.4a28,28,0,1,0-36.06,0L85.91,128.74l-26.79-33a28,28,0,1,0-26.6,12L47,194.63A16,16,0,0,0,62.78,208H193.22A16,16,0,0,0,209,194.63l14.47-86.85A28,28,0,0,0,248,80ZM128,40a12,12,0,1,1-12,12A12,12,0,0,1,128,40ZM24,80A12,12,0,1,1,36,92,12,12,0,0,1,24,80ZM193.22,192H62.78L48.86,108.52,81.79,149A8,8,0,0,0,88,152a7.83,7.83,0,0,0,1.08-.07,8,8,0,0,0,6.26-4.74l29.3-67.4a27,27,0,0,0,6.72,0l29.3,67.4a8,8,0,0,0,6.26,4.74A7.83,7.83,0,0,0,168,152a8,8,0,0,0,6.21-3l32.93-40.52ZM220,92a12,12,0,1,1,12-12A12,12,0,0,1,220,92Z"/></symbol>
  <symbol id="shop" viewBox="0 0 256 256" fill="currentColor"><path d="M247.59,61.22,195.83,33A8,8,0,0,0,192,32H160a8,8,0,0,0-8,8,24,24,0,0,1-48,0,8,8,0,0,0-8-8H64a8,8,0,0,0-3.84,1L8.41,61.22A15.76,15.76,0,0,0,1.82,82.48l19.27,36.81A16.37,16.37,0,0,0,35.67,128H56v80a16,16,0,0,0,16,16H184a16,16,0,0,0,16-16V128h20.34a16.37,16.37,0,0,0,14.58-8.71l19.27-36.81A15.76,15.76,0,0,0,247.59,61.22ZM35.67,112a.62.62,0,0,1-.41-.13L16.09,75.26,56,53.48V112ZM184,208H72V48h16.8a40,40,0,0,0,78.38,0H184Zm36.75-96.14a.55.55,0,0,1-.41.14H200V53.48l39.92,21.78Z"/></symbol>
  <symbol id="mail" viewBox="0 0 256 256" fill="currentColor"><path d="M224,48H32a8,8,0,0,0-8,8V192a16,16,0,0,0,16,16H216a16,16,0,0,0,16-16V56A8,8,0,0,0,224,48Zm-96,85.15L52.57,64H203.43ZM98.71,128,40,181.81V74.19Zm11.84,10.85,12,11.05a8,8,0,0,0,10.82,0l12-11.05,58,53.15H52.57ZM157.29,128,216,74.18V181.82Z"/></symbol>
  <symbol id="phone" viewBox="0 0 256 256" fill="currentColor"><path d="M222.37,158.46l-47.11-21.11-.13-.06a16,16,0,0,0-15.17,1.4,8.12,8.12,0,0,0-.75.56L134.87,160c-15.42-7.49-31.34-23.29-38.83-38.51l20.78-24.71c.2-.25.39-.5.57-.77a16,16,0,0,0,1.32-15.06l0-.12L97.54,33.64a16,16,0,0,0-16.62-9.52A56.26,56.26,0,0,0,32,80c0,79.4,64.6,144,144,144a56.26,56.26,0,0,0,55.88-48.92A16,16,0,0,0,222.37,158.46ZM176,208A128.14,128.14,0,0,1,48,80,40.2,40.2,0,0,1,82.87,40a.61.61,0,0,0,0,.12l21,47L83.2,111.86a6.13,6.13,0,0,0-.57.77,16,16,0,0,0-1,15.7c9.06,18.53,27.73,37.06,46.46,46.11a16,16,0,0,0,15.75-1.14,8.44,8.44,0,0,0,.74-.56L168.89,152l47,21.05h0s.08,0,.11,0A40.21,40.21,0,0,1,176,208Z"/></symbol>
  <symbol id="search" viewBox="0 0 256 256" fill="currentColor"><path d="M229.66,218.34l-50.07-50.06a88.11,88.11,0,1,0-11.31,11.31l50.06,50.07a8,8,0,0,0,11.32-11.32ZM40,112a72,72,0,1,1,72,72A72.08,72.08,0,0,1,40,112Z"/></symbol>
  <symbol id="edit" viewBox="0 0 256 256" fill="currentColor"><path d="M227.31,73.37,182.63,28.68a16,16,0,0,0-22.63,0L36.69,152A15.86,15.86,0,0,0,32,163.31V208a16,16,0,0,0,16,16H92.69A15.86,15.86,0,0,0,104,219.31L227.31,96a16,16,0,0,0,0-22.63ZM92.69,208H48V163.31l88-88L180.69,120ZM192,108.68,147.31,64l24-24L216,84.68Z"/></symbol>
  <symbol id="upload" viewBox="0 0 256 256" fill="currentColor"><path d="M224,144v64a8,8,0,0,1-8,8H40a8,8,0,0,1-8-8V144a8,8,0,0,1,16,0v56H208V144a8,8,0,0,1,16,0ZM93.66,77.66,120,51.31V144a8,8,0,0,0,16,0V51.31l26.34,26.35a8,8,0,0,0,11.32-11.32l-40-40a8,8,0,0,0-11.32,0l-40,40A8,8,0,0,0,93.66,77.66Z"/></symbol>
  <symbol id="payment" viewBox="0 0 256 256" fill="currentColor"><path d="M224,48H32A16,16,0,0,0,16,64V192a16,16,0,0,0,16,16H224a16,16,0,0,0,16-16V64A16,16,0,0,0,224,48Zm0,16V88H32V64Zm0,128H32V104H224v88Zm-16-24a8,8,0,0,1-8,8H168a8,8,0,0,1,0-16h32A8,8,0,0,1,208,168Zm-64,0a8,8,0,0,1-8,8H120a8,8,0,0,1,0-16h16A8,8,0,0,1,144,168Z"/></symbol>
  <symbol id="chevron" viewBox="0 0 256 256" fill="currentColor"><path d="M181.66,133.66l-80,80a8,8,0,0,1-11.32-11.32L164.69,128,90.34,53.66a8,8,0,0,1,11.32-11.32l80,80A8,8,0,0,1,181.66,133.66Z"/></symbol>
  <symbol id="horseshoe" viewBox="0 0 256 256" fill="currentColor"><path d="M200,40H160a16,16,0,0,0-16,16v88a16,16,0,0,1-32,0V56A16,16,0,0,0,96,40H56A16,16,0,0,0,40,56v88a88,88,0,0,0,88,88h.67c48.15-.36,87.33-40.29,87.33-89V56A16,16,0,0,0,200,40Zm0,16V88H160V56ZM96,56V88H56V56Zm32.55,160A72,72,0,0,1,56,144V104H96v40a32,32,0,0,0,64,0V104h40v39C200,183,168,215.71,128.55,216Z"/></symbol>
</svg>
